<svg xmlns="http://www.w3.org/2000/svg" xmlns:xlink="http://www.w3.org/1999/xlink" width="48" height="48" version="1.1" viewBox="0 0 48 48"><title>Icon-Promition-Active</title><desc>Created with Sketch.</desc><g id="Icon-Promition-Active" fill="none" fill-rule="evenodd" stroke="none" stroke-linecap="round" stroke-linejoin="round" stroke-width="1"><g id="Group" stroke="#0041FF" stroke-width="2" transform="translate(8.000000, 10.000000)"><polygon id="Rectangle-15" points="5 8.962 22 1.916 22 26.084 5 19.038"/><path id="Path-17" d="M22,0 L22,28"/><path id="Rectangle-15" d="M3.5,9 L5,9 L5,19 L3.5,19 C1.56700338,19 2.36723813e-16,17.4329966 0,15.5 L0,12.5 C-2.36723813e-16,10.5670034 1.56700338,9 3.5,9 Z"/><path id="Path-18" d="M8,21 L8,22.5494015 C8,24.2446714 9.1212786,25.7355564 10.75,26.2058824 L10.75,26.2058824 C12.3703103,26.6737794 14.1023615,25.9901587 14.9663265,24.5417467 L15.5,23.6470588"/><path id="Path-19" d="M26,14.25 L32,14.25"/><path id="Path-19" d="M26,9.24264069 L30.2426407,5"/><path id="Path-19" d="M26,23.1213203 L30.2426407,18.8786797" transform="translate(28.121320, 21.000000) scale(-1, 1) translate(-28.121320, -21.000000)"/></g></g></svg>